<?xml version="1.0" encoding="UTF-8"?><svg id="Layer_2" xmlns="http://www.w3.org/2000/svg" viewBox="0 0 528.94 312.97"><defs><style>.cls-1{fill:#e52346;stroke-width:0px;}</style></defs><g id="Layer_1-2"><path class="cls-1" d="M494.16,113.01v-43.47c0-46.36-23.18-69.54-69.54-69.54h-41.19v34.77h41.19c23.18,0,34.77,11.59,34.77,34.77v43.47c0,25.5,11.59,39.99,34.77,43.46-23.18,3.48-34.77,17.97-34.77,43.47v43.46c0,23.18-11.59,34.77-34.77,34.77l-110.28-.13-25.51-25.51,66.54-66.54c14.9-13.24,23.43-32.17,23.43-52.05,0-38.42-31.26-69.68-69.67-69.68-16.29,0-30.23,8.09-40.01,14.63-3.97,2.65-4.65,2.72-9.31,0-10.16-5.93-23.72-14.62-40-14.62h-.01c-38.42,0-69.67,31.25-69.67,69.67,0,19.88,8.53,38.82,23.43,52.05l41.79,41.79,24.37-24.37-42.17-42.17-.86-.8c-7.69-6.71-12.1-16.37-12.1-26.5,0-19.42,15.79-35.22,35.21-35.22,6.52,0,15.07,5.27,21.93,9.5,7.83,4.82,14.6,8.99,22.74,8.99s14.9-4.17,22.74-9c6.87-4.23,15.41-9.49,21.93-9.49,19.42,0,35.21,15.8,35.21,35.22,0,10.13-4.41,19.79-12.1,26.5l-117.79,117.73h-110.14c-23.18,0-34.77-11.59-34.77-34.77v-43.46c0-25.5-11.59-39.99-34.77-43.47,23.18-3.48,34.77-17.96,34.77-43.46v-43.47c0-23.18,11.59-34.77,34.77-34.77h41.18V0h-41.18C57.95,0,34.77,23.18,34.77,69.54v43.47c0,17.39-11.59,26.08-34.77,26.08v34.77c23.18,0,34.77,8.69,34.77,26.08v43.46c0,46.36,23.18,69.55,69.54,69.55l124.17-.07,35.97-35.97,36.08,36.07,32.85-.02h91.24c46.36,0,69.54-23.19,69.54-69.55v-43.46c0-17.39,11.59-26.08,34.77-26.08v-34.77c-23.18,0-34.77-8.69-34.77-26.08Z"/></g></svg>